version 1
surface subd per-face cage pPlane1
v -0.628350 -0.500000 0.039035
v -0.295017 -0.500000 0.039035
v 0.038317 -0.500000 0.039035
v 0.371650 -0.500000 0.039035
v -0.628350 -0.166667 0.039035
v -0.295017 -0.166667 0.039035
v 0.038317 -0.166667 0.039035
v 0.371650 -0.166667 0.039035
v -0.628350 0.166667 0.039035
v -0.295017 0.166667 0.039035
v 0.038317 0.166667 0.039035
v 0.371650 0.166667 0.039035
v -0.628350 0.500000 0.039035
v -0.295017 0.500000 0.039035
v 0.038317 0.500000 0.039035
v 0.371650 0.500000 0.039035
vn 0.000000 0.000000 1.000000
vn 0.000000 0.000000 1.000000
vn 0.000000 0.000000 1.000000
vn 0.000000 0.000000 1.000000
vn 0.000000 0.000000 1.000000
vn 0.000000 0.000000 1.000000
vn 0.000000 0.000000 1.000000
vn 0.000000 0.000000 1.000000
vn 0.000000 0.000000 1.000000
vn 0.000000 0.000000 1.000000
vn 0.000000 0.000000 1.000000
vn 0.000000 0.000000 1.000000
vn 0.000000 0.000000 1.000000
vn 0.000000 0.000000 1.000000
vn 0.000000 0.000000 1.000000
vn 0.000000 0.000000 1.000000
g pPlane1
f 1//1 2//2 6//3 5//4
f 2//2 3//5 7//6 6//3
f 3//5 4//7 8//8 7//6
f 5//4 6//3 10//9 9//10
f 6//3 7//6 11//11 10//9
f 7//6 8//8 12//12 11//11
f 9//10 10//9 14//13 13//14
f 10//9 11//11 15//15 14//13
f 11//11 12//12 16//16 15//15
