version 1
surface subd per-face cage cube
v 0.500000 0.500000 0.500000
v 1.500000 0.500000 0.500000
v 0.500000 1.500000 0.500000
v 1.500000 1.500000 0.500000
v 0.500000 1.500000 -0.500000
v 1.500000 1.500000 -0.500000
v 0.500000 0.500000 -0.500000
v 1.500000 0.500000 -0.500000
v -1.500000 0.500000 0.500000
v -0.500000 0.500000 0.500000
v -1.500000 1.500000 0.500000
v -0.500000 1.500000 0.500000
v -1.500000 1.500000 -0.500000
v -0.500000 1.500000 -0.500000
v -1.500000 0.500000 -0.500000
v -0.500000 0.500000 -0.500000
v 0.500000 -1.500000 0.500000
v 1.500000 -1.500000 0.500000
v 0.500000 -0.500000 0.500000
v 1.500000 -0.500000 0.500000
v 0.500000 -0.500000 -0.500000
v 1.500000 -0.500000 -0.500000
v 0.500000 -1.500000 -0.500000
v 1.500000 -1.500000 -0.500000
v -1.500000 -1.500000 0.500000
v -0.500000 -1.500000 0.500000
v -1.500000 -0.500000 0.500000
v -0.500000 -0.500000 0.500000
v -1.500000 -0.500000 -0.500000
v -0.500000 -0.500000 -0.500000
v -1.500000 -1.500000 -0.500000
v -0.500000 -1.500000 -0.500000
v 0.500000 -0.500000 1.500000
v 1.500000 -0.500000 1.500000
v 0.500000 0.500000 1.500000
v 1.500000 0.500000 1.500000
v -1.500000 -0.500000 1.500000
v -0.500000 -0.500000 1.500000
v -1.500000 0.500000 1.500000
v -0.500000 0.500000 1.500000
v -0.500000 1.500000 1.500000
v 0.500000 1.500000 1.500000
v 1.500000 1.500000 1.500000
v -1.500000 1.500000 1.500000
v -0.500001 -1.500000 1.500000
v 0.500000 -1.500000 1.500000
v 1.500000 -1.500000 1.500000
v -1.500000 -1.500000 1.500000
v 0.500000 0.500000 -1.500000
v 1.500000 0.500000 -1.500000
v 0.500000 -0.500000 -1.500000
v 1.500000 -0.500000 -1.500000
v -1.500000 0.500000 -1.500000
v -0.500000 0.500000 -1.500000
v -1.500000 -0.500000 -1.500000
v -0.500000 -0.500000 -1.500000
v -0.500000 1.500000 -1.500000
v 0.500000 1.500000 -1.500000
v 1.500000 1.500000 -1.500000
v -1.500000 1.500000 -1.500000
v -0.500000 -1.500000 -1.500000
v 0.500000 -1.500000 -1.500000
v 1.500000 -1.500000 -1.500000
v -1.500000 -1.500000 -1.500000
vn 0.000000 1.000000 0.000000
vn 0.000000 1.000000 0.000000
vn 0.000000 1.000000 0.000000
vn 0.000000 1.000000 0.000000
vn 0.000000 -1.000000 0.000000
vn 0.000000 -1.000000 0.000000
vn 0.000000 -1.000000 0.000000
vn 0.000000 -1.000000 0.000000
vn 1.000000 0.000000 0.000000
vn 1.000000 0.000000 0.000000
vn 1.000000 0.000000 0.000000
vn 1.000000 0.000000 0.000000
vn -1.000000 0.000000 0.000000
vn -1.000000 0.000000 0.000000
vn -1.000000 0.000000 0.000000
vn -1.000000 0.000000 0.000000
vn 0.000000 1.000000 0.000000
vn 0.000000 1.000000 0.000000
vn 0.000000 1.000000 0.000000
vn 0.000000 1.000000 0.000000
vn 0.000000 -1.000000 0.000000
vn 0.000000 -1.000000 0.000000
vn 0.000000 -1.000000 0.000000
vn 0.000000 -1.000000 0.000000
vn 1.000000 0.000000 0.000000
vn 1.000000 0.000000 0.000000
vn 1.000000 0.000000 0.000000
vn 1.000000 0.000000 0.000000
vn -1.000000 0.000000 0.000000
vn -1.000000 0.000000 0.000000
vn -1.000000 0.000000 0.000000
vn -1.000000 0.000000 0.000000
vn 0.000000 1.000000 0.000000
vn 0.000000 1.000000 0.000000
vn 0.000000 1.000000 0.000000
vn 0.000000 1.000000 0.000000
vn 0.000000 -1.000000 0.000000
vn 0.000000 -1.000000 0.000000
vn 0.000000 -1.000000 0.000000
vn 0.000000 -1.000000 0.000000
vn 1.000000 0.000000 0.000000
vn 1.000000 0.000000 0.000000
vn 1.000000 0.000000 0.000000
vn 1.000000 0.000000 0.000000
vn -1.000000 0.000000 0.000000
vn -1.000000 0.000000 0.000000
vn -1.000000 0.000000 0.000000
vn -1.000000 0.000000 0.000000
vn 0.000000 1.000000 0.000000
vn 0.000000 1.000000 0.000000
vn 0.000000 1.000000 0.000000
vn 0.000000 1.000000 0.000000
vn 0.000000 -1.000000 0.000000
vn 0.000000 -1.000000 0.000000
vn 0.000000 -1.000000 0.000000
vn 0.000000 -1.000000 0.000000
vn 1.000000 0.000000 0.000000
vn 1.000000 0.000000 0.000000
vn 1.000000 0.000000 0.000000
vn 1.000000 0.000000 0.000000
vn -1.000000 0.000000 0.000000
vn -1.000000 0.000000 0.000000
vn -1.000000 0.000000 0.000000
vn -1.000000 0.000000 0.000000
vn 0.000000 0.000000 1.000000
vn 0.000000 0.000000 1.000000
vn 0.000000 0.000000 1.000000
vn 0.000000 0.000000 1.000000
vn 0.000000 0.000000 -1.000000
vn 0.000000 0.000000 -1.000000
vn 0.000000 0.000000 -1.000000
vn 0.000000 0.000000 -1.000000
vn 1.000000 0.000000 0.000000
vn 1.000000 0.000000 0.000000
vn 1.000000 0.000000 0.000000
vn 1.000000 0.000000 0.000000
vn -1.000000 0.000000 0.000000
vn -1.000000 0.000000 0.000000
vn -1.000000 0.000000 0.000000
vn -1.000000 0.000000 0.000000
vn 0.000000 0.000000 1.000000
vn 0.000000 0.000000 1.000000
vn 0.000000 0.000000 1.000000
vn 0.000000 0.000000 1.000000
vn 0.000000 0.000000 -1.000000
vn 0.000000 0.000000 -1.000000
vn 0.000000 0.000000 -1.000000
vn 0.000000 0.000000 -1.000000
vn 1.000000 0.000000 0.000000
vn 1.000000 0.000000 0.000000
vn 1.000000 0.000000 0.000000
vn 1.000000 0.000000 0.000000
vn -1.000000 0.000000 0.000000
vn -1.000000 0.000000 0.000000
vn -1.000000 0.000000 0.000000
vn -1.000000 0.000000 0.000000
vn 0.000000 0.000000 1.000000
vn 0.000000 0.000000 1.000000
vn 0.000000 0.000000 1.000000
vn 0.000000 0.000000 1.000000
vn 0.000000 1.000000 0.000000
vn 0.000000 1.000000 0.000000
vn 0.000000 1.000000 0.000000
vn 0.000000 1.000000 0.000000
vn 0.000000 0.000000 -1.000000
vn 0.000000 0.000000 -1.000000
vn 0.000000 0.000000 -1.000000
vn 0.000000 0.000000 -1.000000
vn 0.000000 -1.000000 0.000000
vn 0.000000 -1.000000 0.000000
vn 0.000000 -1.000000 0.000000
vn 0.000000 -1.000000 0.000000
vn 0.000000 0.000000 1.000000
vn 0.000000 0.000000 1.000000
vn 0.000000 0.000000 1.000000
vn 0.000000 0.000000 1.000000
vn 0.000000 1.000000 0.000000
vn 0.000000 1.000000 0.000000
vn 0.000000 1.000000 0.000000
vn 0.000000 1.000000 0.000000
vn 1.000000 0.000000 0.000000
vn 1.000000 0.000000 0.000000
vn 1.000000 0.000000 0.000000
vn 1.000000 0.000000 0.000000
vn 0.000000 0.000000 1.000000
vn 0.000000 0.000000 1.000000
vn 0.000000 0.000000 1.000000
vn 0.000000 0.000000 1.000000
vn 0.000000 1.000000 0.000000
vn 0.000000 1.000000 0.000000
vn 0.000000 1.000000 0.000000
vn 0.000000 1.000000 0.000000
vn -1.000000 0.000000 0.000000
vn -1.000000 0.000000 0.000000
vn -1.000000 0.000000 0.000000
vn -1.000000 0.000000 0.000000
vn 0.000000 0.000000 1.000000
vn 0.000000 0.000000 1.000000
vn 0.000000 0.000000 1.000000
vn 0.000000 0.000000 1.000000
vn 0.000000 1.000000 0.000000
vn 0.000000 1.000000 0.000000
vn 0.000000 1.000000 0.000000
vn 0.000000 1.000000 0.000000
vn 0.000000 0.000000 -1.000000
vn 0.000000 0.000000 -1.000000
vn 0.000000 0.000000 -1.000000
vn 0.000000 0.000000 -1.000000
vn 0.000000 -1.000000 0.000000
vn 0.000000 -1.000000 0.000000
vn 0.000000 -1.000000 0.000000
vn 0.000000 -1.000000 0.000000
vn 0.000000 0.000000 1.000000
vn 0.000000 0.000000 1.000000
vn 0.000000 0.000000 1.000000
vn 0.000000 0.000000 1.000000
vn 0.000000 -1.000000 0.000000
vn 0.000000 -1.000000 0.000000
vn 0.000000 -1.000000 0.000000
vn 0.000000 -1.000000 0.000000
vn 1.000000 0.000000 0.000000
vn 1.000000 0.000000 0.000000
vn 1.000000 0.000000 0.000000
vn 1.000000 0.000000 0.000000
vn 0.000000 0.000000 1.000000
vn 0.000000 0.000000 1.000000
vn 0.000000 0.000000 1.000000
vn 0.000000 0.000000 1.000000
vn 0.000000 -1.000000 0.000000
vn 0.000000 -1.000000 0.000000
vn 0.000000 -1.000000 0.000000
vn 0.000000 -1.000000 0.000000
vn -1.000000 0.000000 0.000000
vn -1.000000 0.000000 0.000000
vn -1.000000 0.000000 0.000000
vn -1.000000 0.000000 0.000000
vn 0.000000 0.000000 1.000000
vn 0.000000 0.000000 1.000000
vn 0.000000 0.000000 1.000000
vn 0.000000 0.000000 1.000000
vn 0.000000 0.000000 -1.000000
vn 0.000000 0.000000 -1.000000
vn 0.000000 0.000000 -1.000000
vn 0.000000 0.000000 -1.000000
vn 1.000000 0.000000 0.000000
vn 1.000000 0.000000 0.000000
vn 1.000000 0.000000 0.000000
vn 1.000000 0.000000 0.000000
vn -1.000000 0.000000 0.000000
vn -1.000000 0.000000 0.000000
vn -1.000000 0.000000 0.000000
vn -1.000000 0.000000 0.000000
vn 0.000000 0.000000 1.000000
vn 0.000000 0.000000 1.000000
vn 0.000000 0.000000 1.000000
vn 0.000000 0.000000 1.000000
vn 0.000000 0.000000 -1.000000
vn 0.000000 0.000000 -1.000000
vn 0.000000 0.000000 -1.000000
vn 0.000000 0.000000 -1.000000
vn 1.000000 0.000000 0.000000
vn 1.000000 0.000000 0.000000
vn 1.000000 0.000000 0.000000
vn 1.000000 0.000000 0.000000
vn -1.000000 0.000000 0.000000
vn -1.000000 0.000000 0.000000
vn -1.000000 0.000000 0.000000
vn -1.000000 0.000000 0.000000
vn 0.000000 0.000000 1.000000
vn 0.000000 0.000000 1.000000
vn 0.000000 0.000000 1.000000
vn 0.000000 0.000000 1.000000
vn 0.000000 1.000000 0.000000
vn 0.000000 1.000000 0.000000
vn 0.000000 1.000000 0.000000
vn 0.000000 1.000000 0.000000
vn 0.000000 0.000000 -1.000000
vn 0.000000 0.000000 -1.000000
vn 0.000000 0.000000 -1.000000
vn 0.000000 0.000000 -1.000000
vn 0.000000 -1.000000 0.000000
vn 0.000000 -1.000000 0.000000
vn 0.000000 -1.000000 0.000000
vn 0.000000 -1.000000 0.000000
vn 0.000000 1.000000 0.000000
vn 0.000000 1.000000 0.000000
vn 0.000000 1.000000 0.000000
vn 0.000000 1.000000 0.000000
vn 0.000000 0.000000 -1.000000
vn 0.000000 0.000000 -1.000000
vn 0.000000 0.000000 -1.000000
vn 0.000000 0.000000 -1.000000
vn 1.000000 0.000000 0.000000
vn 1.000000 0.000000 0.000000
vn 1.000000 0.000000 0.000000
vn 1.000000 0.000000 0.000000
vn 0.000000 1.000000 0.000000
vn 0.000000 1.000000 0.000000
vn 0.000000 1.000000 0.000000
vn 0.000000 1.000000 0.000000
vn 0.000000 0.000000 -1.000000
vn 0.000000 0.000000 -1.000000
vn 0.000000 0.000000 -1.000000
vn 0.000000 0.000000 -1.000000
vn -1.000000 0.000000 0.000000
vn -1.000000 0.000000 0.000000
vn -1.000000 0.000000 0.000000
vn -1.000000 0.000000 0.000000
vn 0.000000 0.000000 1.000000
vn 0.000000 0.000000 1.000000
vn 0.000000 0.000000 1.000000
vn 0.000000 0.000000 1.000000
vn 0.000000 1.000000 0.000000
vn 0.000000 1.000000 0.000000
vn 0.000000 1.000000 0.000000
vn 0.000000 1.000000 0.000000
vn 0.000000 0.000000 -1.000000
vn 0.000000 0.000000 -1.000000
vn 0.000000 0.000000 -1.000000
vn 0.000000 0.000000 -1.000000
vn 0.000000 -1.000000 0.000000
vn 0.000000 -1.000000 0.000000
vn 0.000000 -1.000000 0.000000
vn 0.000000 -1.000000 0.000000
vn 0.000000 0.000000 -1.000000
vn 0.000000 0.000000 -1.000000
vn 0.000000 0.000000 -1.000000
vn 0.000000 0.000000 -1.000000
vn 0.000000 -1.000000 0.000000
vn 0.000000 -1.000000 0.000000
vn 0.000000 -1.000000 0.000000
vn 0.000000 -1.000000 0.000000
vn 1.000000 0.000000 0.000000
vn 1.000000 0.000000 0.000000
vn 1.000000 0.000000 0.000000
vn 1.000000 0.000000 0.000000
vn 0.000000 0.000000 -1.000000
vn 0.000000 0.000000 -1.000000
vn 0.000000 0.000000 -1.000000
vn 0.000000 0.000000 -1.000000
vn 0.000000 -1.000000 0.000000
vn 0.000000 -1.000000 0.000000
vn 0.000000 -1.000000 0.000000
vn 0.000000 -1.000000 0.000000
vn -1.000000 0.000000 0.000000
vn -1.000000 0.000000 0.000000
vn -1.000000 0.000000 0.000000
vn -1.000000 0.000000 0.000000
g cube
r 0
f 3//1 4//2 6//3 5//4
f 7//5 8//6 2//7 1//8
f 2//9 8//10 6//11 4//12
f 7//13 1//14 3//15 5//16
f 11//17 12//18 14//19 13//20
f 15//21 16//22 10//23 9//24
f 10//25 16//26 14//27 12//28
f 15//29 9//30 11//31 13//32
f 19//33 20//34 22//35 21//36
f 23//37 24//38 18//39 17//40
f 18//41 24//42 22//43 20//44
f 23//45 17//46 19//47 21//48
f 27//49 28//50 30//51 29//52
f 31//53 32//54 26//55 25//56
f 26//57 32//58 30//59 28//60
f 31//61 25//62 27//63 29//64
f 33//65 34//66 36//67 35//68
f 1//69 2//70 20//71 19//72
f 34//73 20//74 2//75 36//76
f 19//77 33//78 35//79 1//80
f 37//81 38//82 40//83 39//84
f 9//85 10//86 28//87 27//88
f 38//89 28//90 10//91 40//92
f 27//93 37//94 39//95 9//96
f 40//97 35//98 42//99 41//100
f 41//101 42//102 3//103 12//104
f 12//105 3//106 1//107 10//108
f 10//109 1//110 35//111 40//112
f 35//113 36//114 43//115 42//116
f 42//117 43//118 4//119 3//120
f 36//121 2//122 4//123 43//124
f 39//125 40//126 41//127 44//128
f 44//129 41//130 12//131 11//132
f 9//133 39//134 44//135 11//136
f 45//137 46//138 33//139 38//140
f 38//141 33//142 19//143 28//144
f 28//145 19//146 17//147 26//148
f 26//149 17//150 46//151 45//152
f 46//153 47//154 34//155 33//156
f 17//157 18//158 47//159 46//160
f 47//161 18//162 20//163 34//164
f 48//165 45//166 38//167 37//168
f 25//169 26//170 45//171 48//172
f 25//173 48//174 37//175 27//176
f 21//177 22//178 8//179 7//180
f 49//181 50//182 52//183 51//184
f 22//185 52//186 50//187 8//188
f 51//189 21//190 7//191 49//192
f 29//193 30//194 16//195 15//196
f 53//197 54//198 56//199 55//200
f 30//201 56//202 54//203 16//204
f 55//205 29//206 15//207 53//208
f 16//209 7//210 5//211 14//212
f 14//213 5//214 58//215 57//216
f 57//217 58//218 49//219 54//220
f 54//221 49//222 7//223 16//224
f 5//225 6//226 59//227 58//228
f 58//229 59//230 50//231 49//232
f 8//233 50//234 59//235 6//236
f 13//237 14//238 57//239 60//240
f 60//241 57//242 54//243 53//244
f 53//245 15//246 13//247 60//248
f 32//249 23//250 21//251 30//252
f 30//253 21//254 51//255 56//256
f 56//257 51//258 62//259 61//260
f 61//261 62//262 23//263 32//264
f 51//265 52//266 63//267 62//268
f 62//269 63//270 24//271 23//272
f 24//273 63//274 52//275 22//276
f 55//277 56//278 61//279 64//280
f 64//281 61//282 32//283 31//284
f 64//285 31//286 29//287 55//288
